<?xml version="1.0" encoding="iso-8859-1"?>
<!-- Uploaded to: SVG Repo, www.svgrepo.com, Generator: SVG Repo Mixer Tools -->
<svg height="100" width="100" version="1.1" id="Layer_1" xmlns="http://www.w3.org/2000/svg" xmlns:xlink="http://www.w3.org/1999/xlink" 
	 viewBox="0 0 512.001 512.001" xml:space="preserve">
<path style="fill:#774E3C;" d="M388.071,94.392H160.037c-0.529,0-1.046,0.032-1.571,0.039c-0.683,0.015-1.367,0.029-2.047,0.053
	c-0.642,0.023-1.285,0.037-1.926,0.072C68.541,98.283,0,169.133,0,256.002C0,345.256,72.357,417.61,161.612,417.61
	c77.192,0,141.736-54.126,157.77-126.495h94.255c54.329,0,98.364-44.033,98.364-98.362c0-54.327-44.034-98.363-98.364-98.363
	 M421.599,215.9c-12.962,0-23.47-10.508-23.47-23.47s10.508-23.47,23.47-23.47s23.47,10.508,23.47,23.47
	C445.069,205.391,434.561,215.9,421.599,215.9z"/>
<circle style="fill:#EFAC52;" cx="161.138" cy="256.606" r="128.47"/>
<path style="opacity:0.15;fill:#202020;enable-background:new    ;" d="M51.674,256.612c0-67.756,52.454-123.254,118.967-128.117
	c-3.137-0.229-6.305-0.35-9.5-0.35c-70.951,0-128.467,57.516-128.467,128.467c0,70.95,57.516,128.467,128.467,128.467
	c3.195,0,6.363-0.121,9.5-0.35C104.129,379.866,51.674,324.365,51.674,256.612z"/>
<path style="fill:#E95353;" d="M194.955,184.222c-23.321-28.639-65.444-32.947-94.083-9.626
	c-25.875,21.072-32.523,58.009-16.238,85.964l0.011,0.013c1.738,2.98,4.354,5.348,6.601,8.106c2.246,2.757,4.036,5.8,6.601,8.105
	l42.623,52.339c1.377,2.528,3.63,4.456,5.512,6.771c16.476,20.232,46.235,23.277,66.466,6.801
	c15.511-12.631,20.905-33.059,15.164-51.025c0,0-2.226-6.456-4.181-9.413c-0.001,0-0.001-0.002-0.001-0.002
	c-1.22-2.082-2.609-4.098-4.18-6.026c-0.216-0.265-0.447-0.51-0.668-0.769c-9.903-16.042-9.897-32.448-9.328-39.36
	C211.862,218.216,207.268,199.342,194.955,184.222z"/>
<g>
	<path style="fill:#FCC24D;" d="M112.252,348.923c-1.434,0-2.888-0.369-4.217-1.143c-24.542-14.324-42.513-38.297-49.305-65.771
		c-1.111-4.494,1.632-9.038,6.126-10.149c4.493-1.103,9.037,1.632,10.148,6.127c5.71,23.1,20.831,43.261,41.482,55.314
		c3.998,2.334,5.347,7.467,3.013,11.465C117.941,347.434,115.137,348.923,112.252,348.923z"/>
	<path style="fill:#FCC24D;" d="M256.288,284.566c-0.558,0-1.122-0.057-1.69-0.172c-4.535-0.928-7.46-5.357-6.532-9.892
		c1.196-5.845,1.802-11.864,1.802-17.891c0-23.713-9.238-46.001-26.01-62.762c-3.275-3.272-3.277-8.58-0.004-11.855
		c3.272-3.274,8.58-3.276,11.853-0.004c19.944,19.928,30.926,46.429,30.926,74.622c0,7.152-0.721,14.302-2.141,21.25
		C263.68,281.83,260.187,284.566,256.288,284.566z"/>
</g>
<g>
	<path style="fill:#F96969;" d="M108.675,204.372c-2.973,0-5.852-1.584-7.372-4.378c-2.212-4.067-0.71-9.157,3.358-11.37
		l30.999-16.862c4.067-2.213,9.156-0.709,11.368,3.358c2.212,4.067,0.71,9.157-3.358,11.37l-30.999,16.862
		C111.4,204.045,110.027,204.372,108.675,204.372z"/>
	<path style="fill:#F96969;" d="M101.41,252.274c-2.973,0-5.852-1.584-7.372-4.379c-2.212-4.067-0.709-9.156,3.358-11.368
		l77.985-42.416c4.066-2.213,9.157-0.709,11.368,3.36c2.212,4.067,0.709,9.156-3.358,11.368l-77.985,42.416
		C104.135,251.947,102.763,252.274,101.41,252.274z"/>
	<path style="fill:#F96969;" d="M124.175,283.847c-2.973,0-5.852-1.584-7.372-4.378c-2.212-4.067-0.71-9.157,3.358-11.37
		l63.091-34.316c4.066-2.212,9.156-0.709,11.368,3.358c2.212,4.067,0.709,9.157-3.358,11.37l-63.091,34.316
		C126.9,283.52,125.528,283.847,124.175,283.847z"/>
	<path style="fill:#F96969;" d="M148.076,314.797c-2.973,0-5.852-1.584-7.372-4.379c-2.212-4.067-0.709-9.155,3.358-11.368
		l48.847-26.568c4.067-2.213,9.157-0.709,11.368,3.36c2.212,4.067,0.709,9.156-3.358,11.368l-48.847,26.568
		C150.8,314.47,149.428,314.797,148.076,314.797z"/>
	<path style="fill:#F96969;" d="M181.187,340.741c-2.972,0-5.85-1.584-7.371-4.378c-2.212-4.067-0.709-9.157,3.358-11.37
		l24.467-13.307c4.066-2.213,9.156-0.709,11.368,3.358c2.212,4.067,0.709,9.157-3.358,11.37l-24.467,13.307
		C183.914,340.413,182.541,340.741,181.187,340.741z"/>
</g>
<path style="opacity:0.15;fill:#202020;enable-background:new    ;" d="M164.979,329.466c-1.882-2.313-4.134-4.242-5.512-6.771
	l-42.623-52.339c-2.565-2.305-4.354-5.348-6.601-8.105c-2.246-2.758-4.864-5.127-6.601-8.106l-0.011-0.013
	c-16.284-27.955-9.637-64.893,16.238-85.964c3.641-2.965,7.503-5.479,11.515-7.558c-10.845,1.92-21.368,6.537-30.514,13.985
	c-25.875,21.072-32.523,58.009-16.238,85.964l0.011,0.013c1.738,2.98,4.354,5.348,6.601,8.106c2.246,2.757,4.036,5.8,6.601,8.105
	l42.623,52.339c1.377,2.528,3.63,4.456,5.512,6.771c15.031,18.457,41.112,22.603,60.934,10.679
	C191.48,348.299,175.516,342.403,164.979,329.466z"/>
</svg>